<svg width="29" height="28" viewBox="0 0 29 28" fill="none" xmlns="http://www.w3.org/2000/svg">
<circle cx="14.4676" cy="13.8186" r="13.8186" fill="white"/>
<path d="M17.5062 14.9064L17.8664 12.5571H15.6134V11.0347C15.5978 10.8594 15.6218 10.6828 15.6837 10.5181C15.7455 10.3533 15.8435 10.2045 15.9706 10.0827C16.0976 9.96091 16.2504 9.86923 16.4177 9.81443C16.5849 9.75963 16.7624 9.74311 16.9369 9.76609H17.9612V7.76527C17.3597 7.66879 16.7519 7.61645 16.1428 7.60865C15.7237 7.57667 15.3027 7.63726 14.9096 7.78613C14.5165 7.935 14.161 8.16851 13.8682 8.4701C13.5754 8.7717 13.3526 9.13399 13.2154 9.53132C13.0783 9.92864 13.0302 10.3513 13.0746 10.7692V12.5586H11.0127V14.9079H13.0754V20.5838H15.6134V14.9064H17.5062Z" fill="black"/>
</svg>
