<svg width="29" height="28" viewBox="0 0 29 28" fill="none" xmlns="http://www.w3.org/2000/svg">
<circle cx="14.5327" cy="13.8186" r="13.8186" fill="white"/>
<path d="M14.707 12.3947C14.391 12.3947 14.082 12.4884 13.8192 12.664C13.5564 12.8396 13.3515 13.0892 13.2306 13.3812C13.1096 13.6733 13.078 13.9946 13.1396 14.3046C13.2013 14.6146 13.3535 14.8993 13.577 15.1228C13.8005 15.3463 14.0853 15.4985 14.3953 15.5602C14.7053 15.6219 15.0266 15.5902 15.3186 15.4693C15.6106 15.3483 15.8602 15.1435 16.0358 14.8807C16.2114 14.6179 16.3052 14.3089 16.3052 13.9928C16.3052 13.7829 16.2638 13.5751 16.1835 13.3812C16.1032 13.1873 15.9855 13.0112 15.8371 12.8628C15.6887 12.7144 15.5125 12.5967 15.3186 12.5163C15.1247 12.436 14.9169 12.3947 14.707 12.3947ZM14.707 11.3293C15.2338 11.3293 15.7488 11.4855 16.1868 11.7782C16.6248 12.0708 16.9662 12.4868 17.1678 12.9735C17.3694 13.4602 17.4222 13.9958 17.3194 14.5124C17.2166 15.0291 16.9629 15.5037 16.5904 15.8762C16.2179 16.2487 15.7433 16.5024 15.2267 16.6051C14.71 16.7079 14.1745 16.6552 13.6878 16.4536C13.2011 16.252 12.7851 15.9106 12.4924 15.4726C12.1997 15.0346 12.0435 14.5196 12.0435 13.9928C12.0435 13.643 12.1124 13.2967 12.2463 12.9735C12.3801 12.6504 12.5763 12.3567 12.8236 12.1094C13.3232 11.6099 14.0006 11.3293 14.707 11.3293ZM18.1696 11.1961C18.1696 11.3278 18.1306 11.4566 18.0574 11.5661C17.9842 11.6756 17.8802 11.7609 17.7586 11.8113C17.6369 11.8617 17.503 11.8749 17.3738 11.8492C17.2447 11.8235 17.126 11.7601 17.0329 11.667C16.9398 11.5738 16.8763 11.4552 16.8506 11.326C16.825 11.1969 16.8381 11.063 16.8885 10.9413C16.9389 10.8196 17.0243 10.7156 17.1338 10.6425C17.2433 10.5693 17.372 10.5302 17.5037 10.5302C17.5912 10.5302 17.6778 10.5475 17.7586 10.5809C17.8393 10.6144 17.9128 10.6634 17.9746 10.7253C18.0364 10.7871 18.0855 10.8605 18.1189 10.9413C18.1524 11.0221 18.1696 11.1087 18.1696 11.1961ZM14.707 9.73118C13.3908 9.73118 13.174 9.73118 12.5607 9.76215C12.2338 9.76647 11.91 9.82616 11.603 9.93869C11.3872 10.0222 11.1913 10.1499 11.0277 10.3135C10.8641 10.477 10.7364 10.673 10.6529 10.8887C10.5403 11.1957 10.4806 11.5196 10.4764 11.8465C10.4485 12.435 10.4454 12.6401 10.4454 13.9928C10.4454 15.3091 10.4454 15.5259 10.4764 16.1391C10.481 16.4658 10.5407 16.7893 10.6529 17.0961C10.736 17.312 10.8634 17.508 11.0269 17.6717C11.1904 17.8353 11.3864 17.9629 11.6022 18.0462C11.9094 18.1589 12.2335 18.2189 12.5607 18.2235C13.1492 18.2513 13.3544 18.2544 14.707 18.2544C16.0233 18.2544 16.2401 18.2544 16.8533 18.2235C17.18 18.2187 17.5035 18.1591 17.8103 18.0469C18.0275 17.9666 18.2241 17.8389 18.3856 17.673C18.5523 17.5118 18.6804 17.3152 18.7604 17.0977C18.8727 16.7903 18.9323 16.4663 18.9369 16.1391C18.9648 15.5507 18.9679 15.3455 18.9679 13.9928C18.9679 12.6765 18.9679 12.4597 18.9369 11.8465C18.9325 11.5196 18.8728 11.1957 18.7604 10.8887C18.6801 10.6713 18.552 10.4747 18.3856 10.3134C18.2246 10.1467 18.0279 10.0186 17.8103 9.93869C17.5034 9.82613 17.1795 9.76644 16.8526 9.76215C16.2649 9.73428 16.0597 9.73118 14.707 9.73118ZM14.707 8.66577C16.1542 8.66577 16.333 8.67119 16.9029 8.69752C17.3448 8.7067 17.782 8.79046 18.1959 8.94529C18.5517 9.07846 18.8739 9.28806 19.1398 9.55929C19.4112 9.82565 19.6213 10.148 19.7553 10.5039C19.91 10.918 19.9937 11.3551 20.0031 11.797C20.0279 12.3645 20.0349 12.5457 20.0349 13.9928C20.0349 15.4399 20.0294 15.6188 20.0031 16.1887C19.9937 16.6305 19.9099 17.0676 19.7553 17.4817C19.6187 17.8361 19.4093 18.158 19.1408 18.4265C18.8722 18.6951 18.5503 18.9045 18.1959 19.0411C17.7819 19.1957 17.3448 19.2795 16.9029 19.2889C16.3353 19.3137 16.1542 19.3206 14.707 19.3206C13.2599 19.3206 13.0811 19.3152 12.5112 19.2889C12.0693 19.2794 11.6322 19.1957 11.2181 19.0411C10.8642 18.9045 10.5427 18.6953 10.2744 18.427C10.0061 18.1587 9.79695 17.8372 9.66029 17.4833C9.50543 17.0693 9.42166 16.6321 9.41252 16.1902C9.38697 15.6203 9.38 15.4399 9.38 13.9928C9.38 12.5457 9.38542 12.3668 9.41175 11.797C9.42088 11.3551 9.50465 10.9179 9.65952 10.5039C9.79617 10.1497 10.0054 9.82808 10.2739 9.55964C10.5423 9.29121 10.864 9.08193 11.2181 8.94529C11.6321 8.79042 12.0693 8.70665 12.5112 8.69752C13.0787 8.67274 13.2599 8.66577 14.707 8.66577Z" fill="black"/>
</svg>
