<svg width="28" height="28" viewBox="0 0 28 28" fill="none" xmlns="http://www.w3.org/2000/svg">
<circle cx="14" cy="13.8186" r="13.8186" fill="white"/>
<path d="M19.5859 10.6128C19.1791 10.7928 18.7477 10.911 18.306 10.9635C18.7728 10.685 19.1221 10.246 19.2886 9.72857C18.8515 9.98872 18.373 10.172 17.874 10.2706C17.5385 9.91274 17.0943 9.67564 16.6103 9.59605C16.1264 9.51647 15.6296 9.59883 15.1973 9.83038C14.7649 10.0619 14.421 10.4297 14.219 10.8767C14.017 11.3236 13.9681 11.8247 14.08 12.3023C13.1942 12.2578 12.3277 12.0275 11.5367 11.6264C10.7457 11.2253 10.0478 10.6623 9.48853 9.97401C9.20362 10.4645 9.1163 11.0452 9.24431 11.5978C9.37233 12.1504 9.70607 12.6335 10.1776 12.9488C9.82473 12.9372 9.47966 12.8417 9.17108 12.67V12.6979C9.17061 13.2118 9.34769 13.71 9.67234 14.1083C9.997 14.5066 10.4493 14.7805 10.9527 14.8837C10.6244 14.9727 10.2803 14.9859 9.94613 14.9224C10.0881 15.3654 10.3651 15.7529 10.7383 16.0306C11.1115 16.3083 11.5623 16.4623 12.0274 16.471C11.5653 16.8339 11.0362 17.1023 10.4704 17.2606C9.90458 17.419 9.31308 17.4643 8.72974 17.3939C9.74812 18.0487 10.9336 18.3963 12.1443 18.3951C12.9788 18.4008 13.806 18.2407 14.578 17.9238C15.35 17.607 16.0513 17.1399 16.6412 16.5496C17.231 15.9594 17.6976 15.2577 18.0139 14.4855C18.3301 13.7132 18.4897 12.8859 18.4833 12.0514C18.4833 11.9554 18.4833 11.8586 18.4764 11.7634C18.9115 11.4489 19.2872 11.0596 19.5859 10.6136V10.6128Z" fill="black"/>
</svg>
